<svg width="18" height="14" viewBox="0 0 18 14" fill="none" xmlns="http://www.w3.org/2000/svg">
<path d="M0 12.4119C1.55345 13.4149 3.39867 14 5.38138 14C11.8386 14 15.3694 8.61461 15.3694 3.94382C15.3694 3.79086 15.366 3.63833 15.3595 3.48665C16.0455 2.98846 16.6405 2.36595 17.1111 1.65712C16.4815 1.93826 15.8051 2.12839 15.0949 2.21384C15.8197 1.77633 16.3763 1.08374 16.6383 0.258492C15.96 0.66332 15.2088 0.957701 14.4093 1.116C13.7689 0.429182 12.8565 0 11.8466 0C9.90806 0 8.33615 1.58257 8.33615 3.53429C8.33615 3.81115 8.36734 4.08097 8.42718 4.33967C5.50976 4.19227 2.92294 2.7853 1.19145 0.64687C0.889294 1.16898 0.716146 1.7759 0.716146 2.42384C0.716146 3.64986 1.33574 4.73168 2.27787 5.36552C1.7022 5.34715 1.1609 5.18799 0.687712 4.92331C0.6875 4.93826 0.6875 4.953 0.6875 4.96796C0.6875 6.6802 1.89763 8.10874 3.50349 8.43345C3.20897 8.51399 2.89875 8.55757 2.57855 8.55757C2.35235 8.55757 2.13252 8.53536 1.918 8.49391C2.36466 9.8981 3.66136 10.9199 5.19741 10.9483C3.99599 11.8964 2.48221 12.4614 0.837519 12.4614C0.554032 12.4614 0.274576 12.4448 0 12.4119Z" fill="white"/>
</svg>
