<svg width="20" height="14" viewBox="0 0 20 14" fill="none" xmlns="http://www.w3.org/2000/svg">
<path d="M16.9419 1.1725C15.6473 0.62475 14.263 0.22667 12.8157 0C12.638 0.290583 12.4304 0.681424 12.2872 0.992336C10.7488 0.783119 9.22445 0.783119 7.7143 0.992336C7.57116 0.681424 7.3588 0.290583 7.17947 0C5.73067 0.22667 4.3448 0.626212 3.05016 1.1754C0.438869 4.74369 -0.269009 8.22334 0.0849306 11.6536C1.81688 12.8232 3.49534 13.5336 5.14548 13.9986C5.55291 13.4915 5.91628 12.9525 6.22931 12.3844C5.63313 12.1795 5.06211 11.9267 4.52256 11.6333C4.6657 11.5374 4.80571 11.4371 4.94098 11.334C8.23183 12.7258 11.8074 12.7258 15.0589 11.334C15.1958 11.4371 15.3358 11.5374 15.4774 11.6333C14.9362 11.9282 14.3637 12.181 13.7675 12.3859C14.0805 12.9525 14.4423 13.493 14.8513 14C16.503 13.5351 18.1831 12.8246 19.915 11.6536C20.3303 7.67706 19.2056 4.22936 16.9419 1.1725ZM6.67765 9.54402C5.68977 9.54402 4.87963 8.71005 4.87963 7.69449C4.87963 6.67892 5.67247 5.84352 6.67765 5.84352C7.68285 5.84352 8.49297 6.67746 8.47567 7.69449C8.47723 8.71005 7.68285 9.54402 6.67765 9.54402ZM13.3223 9.54402C12.3344 9.54402 11.5243 8.71005 11.5243 7.69449C11.5243 6.67892 12.3171 5.84352 13.3223 5.84352C14.3275 5.84352 15.1376 6.67746 15.1203 7.69449C15.1203 8.71005 14.3275 9.54402 13.3223 9.54402Z" fill="white"/>
</svg>
